<svg width="49" height="24" viewBox="0 0 49 24" fill="none" xmlns="http://www.w3.org/2000/svg">
<path d="M24.5 16C25.0304 16 25.5391 16.2107 25.9142 16.5858C26.2893 16.9609 26.5 17.4696 26.5 18C26.5 18.5304 26.2893 19.0391 25.9142 19.4142C25.5391 19.7893 25.0304 20 24.5 20C23.9696 20 23.4609 19.7893 23.0858 19.4142C22.7107 19.0391 22.5 18.5304 22.5 18C22.5 17.4696 22.7107 16.9609 23.0858 16.5858C23.4609 16.2107 23.9696 16 24.5 16ZM24.5 10C25.0304 10 25.5391 10.2107 25.9142 10.5858C26.2893 10.9609 26.5 11.4696 26.5 12C26.5 12.5304 26.2893 13.0391 25.9142 13.4142C25.5391 13.7893 25.0304 14 24.5 14C23.9696 14 23.4609 13.7893 23.0858 13.4142C22.7107 13.0391 22.5 12.5304 22.5 12C22.5 11.4696 22.7107 10.9609 23.0858 10.5858C23.4609 10.2107 23.9696 10 24.5 10ZM24.5 4C25.0304 4 25.5391 4.21071 25.9142 4.58579C26.2893 4.96086 26.5 5.46957 26.5 6C26.5 6.53043 26.2893 7.03914 25.9142 7.41421C25.5391 7.78929 25.0304 8 24.5 8C23.9696 8 23.4609 7.78929 23.0858 7.41421C22.7107 7.03914 22.5 6.53043 22.5 6C22.5 5.46957 22.7107 4.96086 23.0858 4.58579C23.4609 4.21071 23.9696 4 24.5 4Z" fill="#D1D5DB"/>
</svg>
